<svg xmlns="http://www.w3.org/2000/svg" fill="none" viewBox="0 0 124 145"><path fill="#91C12F" fill-rule="evenodd" d="M86.214.542a.33.33 0 0 1 .46-.081L96.9 7.62a.33.33 0 0 1 .082.46L82.75 28.404C89.668 30.614 94.382 33 94.382 33S82.86 52.816 63.319 52.816c-19.54 0-33.426-18.47-33.426-18.47s4.923-3.142 12.222-5.837L26.505 9.907a.33.33 0 0 1 .041-.466l9.562-8.023a.33.33 0 0 1 .466.04l19.764 23.554a45.907 45.907 0 0 1 5.156-.298c2.5 0 4.998.19 7.436.513L86.214.542Zm3.866 53.213c5.215-3.724 13.106-13.445 13.106-13.445s20.155 15.972 20.155 49.84c0 33.866-34.845 54.249-34.845 54.249s-16.649-16.814-20.736-38.127c-4.087-21.313 6.046-44.98 6.046-44.98s11.06-3.813 16.274-7.537Zm-56.16 0C28.705 50.03 20.814 40.31 20.814 40.31S.66 56.282.66 90.15c0 33.866 34.845 54.249 34.845 54.249s16.649-16.814 20.736-38.127c4.087-21.313-6.046-44.98-6.046-44.98s-11.06-3.813-16.274-7.537Z" clip-rule="evenodd"/></svg>