<svg xmlns="http://www.w3.org/2000/svg" fill="none" viewBox="0 0 126 145"><path fill="#0B6DC3" fill-rule="evenodd" d="M69.986 72.085c.976-.595 1.804-1.842 2.471-3.228 8.788 3.592 14.963 12.079 14.963 21.976 0 13.148-10.898 23.808-24.342 23.808-5.519 0-10.608-1.797-14.691-4.824a56.97 56.97 0 0 1-3.343-1.742c-1.399-.773-2.316-1.28-2.89-1.201-1.68.232-1.192 1.776-.749 3.179.301.954.581 1.841.147 2.208-.453.383-1.924-1.019-3.642-2.657-2.339-2.23-5.137-4.897-6.456-4.096-1.043.633-.03 2.352 1.21 4.456l.091.156c.524.889 1.13 1.795 1.685 2.621 1.125 1.68 2.032 3.033 1.579 3.262-.549.277-4.37-2.302-7.59-5.883-1.243-1.382-2.447-2.88-3.565-4.272-2.45-3.047-4.49-5.585-5.635-5.285-1.377.362-.335 3.204 1.196 5.938.716 1.279 1.559 2.581 2.288 3.709 1.134 1.754 1.995 3.084 1.683 3.248-.421.22-4.129-3.395-6.646-7.95-1.496-2.706-2.752-5.696-3.768-8.117-1.103-2.626-1.924-4.581-2.465-4.778-1.879-.684-1.879 3.147-1.125 8.676.098.722.244 1.478.425 2.249 7.308 23.645 29.757 40.862 56.318 40.862 32.49 0 58.827-25.759 58.827-57.535 0-30.243-23.858-55.036-54.171-57.357.038-1.425.782-4.25.782-4.25s5.35-12.948 5.634-15.715c.018-.183.04-.383.065-.595.333-2.99.953-8.548-3.829-8.548-2.554 0-3.741 1.9-5.1 4.072-.52.835-1.067 1.709-1.726 2.531-4.744 5.925-12.722 13.323-17.245 17.265-9.56 8.33-18.94 15.177-24.412 19.17-2.488 1.817-4.168 3.043-4.687 3.55-3.917 3.818-17.96 29.149-17.96 29.149S-1.23 84.264.384 85.912c1.614 1.648 5.507 1.27 5.507 1.27S58.188 75.185 62.87 74.24c1.26-.255 2.15-.402 2.834-.515 1.855-.306 2.188-.361 4.282-1.639ZM33.01 56.668c-2.808 2.668-7.463 9.037-7.463 9.037s8.652.533 13.418-3.996c4.765-4.53 3.673-12.25 3.673-12.25s-6.822 4.54-9.628 7.209Z" clip-rule="evenodd"/></svg>