<svg xmlns="http://www.w3.org/2000/svg" fill="none" viewBox="0 0 136 145"><path fill="#CE416B" fill-rule="evenodd" d="M20.834 12.371C22.577 5.491 28.811.4 36.233.4 41.8.4 46.699 3.264 49.535 7.6h4.644a15.836 15.836 0 0 1 11.377-4.8c6.54 0 12.158 3.953 14.593 9.6h3.888a15.81 15.81 0 0 1 8.4-2.4c6.54 0 12.157 3.953 14.592 9.6h10.573a.49.49 0 0 1 .248.067c.483-.045.972-.067 1.466-.067 8.773 0 15.884 7.111 15.884 15.884v48.49c0 .29-.008.58-.024.868C134.221 117.883 104.511 144.4 68 144.4 30.886 144.4.8 117 .8 83.2c0-16.315 7.01-31.14 18.437-42.11-.028 15.905.24 32.349 1.479 32.067 3.316-.756.725-50.021.118-60.785Z" clip-rule="evenodd"/></svg>