<svg xmlns="http://www.w3.org/2000/svg" fill="none" viewBox="0 0 144 125"><path fill="#89AAE3" fill-rule="evenodd" d="M50.263 124.8c21.094 0 39.154-11.724 46.61-28.344.09-.202-29.934 7.803-28.976 4.973.427-1.264 18.832-7.987 32.242-15.83 7.707-4.507 11.256-14.049 11.256-14.049s-12.985 6.304-19.549 7.903c-13.228 3.224-24.872 2.876-24.872 2.54 0-.725 19.335-4.4 46.208-20.775 12.64-7.703 16.073-20.97 16.073-20.97s-13.897 8.278-22.298 11.01c-19.922 6.481-38.103 8.434-38.103 7.557 0-1.877 16-6.277 32.963-14.496 8.82-4.274 16.458-9.857 25.31-16.067C141.611 18.093 144 0 144 0s-14.286 9.214-21.257 12.274c-28.766 12.625-54.166 19.248-72.48 20.682C22.617 35.12 0 54.409 0 79.453 0 104.498 22.503 124.8 50.263 124.8Z" clip-rule="evenodd"/></svg>