<svg xmlns="http://www.w3.org/2000/svg" fill="none" viewBox="0 0 144 145"><path fill="#5269AD" fill-rule="evenodd" d="M103.768 143.901c-12.99.665-27.86.665-32.913 0C31.435 138.715 0 109.894 0 70.937 0 31.981 32.236.4 72 .4c39.765 0 72 31.58 72 70.537 0 18.119-6.973 34.642-18.433 47.134-3.112 3.392 1.158 5.772 5.496 8.189 4.255 2.372 8.575 4.779 6.064 8.215-2.767 3.786-17.767 8.628-33.359 9.426Zm-41.893-81.78c0 6.086-5.037 11.02-11.25 11.02s-11.25-4.934-11.25-11.02c0-4.083 2.266-7.647 5.632-9.552.194 5.308 4.557 9.55 9.912 9.55h6.956v.001Zm34.868-9.552c-.194 5.308-4.557 9.55-9.912 9.55h-6.956v.001c0 6.087 5.037 11.022 11.25 11.022s11.25-4.935 11.25-11.022c0-4.082-2.265-7.646-5.632-9.55Z" clip-rule="evenodd"/></svg>