<svg xmlns="http://www.w3.org/2000/svg" fill="none" viewBox="0 0 142 123"><path fill="#73CEC0" fill-rule="evenodd" d="m107.085.38.443 38.911L73.59 55.583l-.419-36.74L107.085.38ZM141.107 61.694 107.51 80.911 73.894 61.664l33.599-17.649 33.614 17.68ZM67.918 61.694 34.32 80.911.704 61.664l33.6-17.649 33.614 17.68ZM33.943.221l34.871 17.27-.891 37.636-32.925-16.306L33.943.22ZM108.034 122.579l-34.87-17.271.89-37.636L106.98 83.98l1.054 38.6ZM35.148 122.929l-.444-38.911 33.94-16.292.418 36.739-33.914 18.464Z" clip-rule="evenodd"/></svg>