<svg xmlns="http://www.w3.org/2000/svg" fill="none" viewBox="0 0 144 145"><path fill="#B567CE" fill-rule="evenodd" d="M120.325 111.057C134.866 99.43 144 82.631 144 63.948 144 28.851 111.765.4 72 .4 32.236.4 0 28.85 0 63.948c0 18.008 8.486 34.267 22.122 45.83a33.13 33.13 0 0 0-1.28 9.203c0 14.038 8.483 25.419 18.948 25.419 6.8 0 12.762-4.805 16.105-12.022C59.237 139.595 65.2 144.4 72 144.4c6.198 0 11.701-3.993 15.158-10.165 3.457 6.172 8.96 10.165 15.158 10.165 10.464 0 18.947-11.381 18.947-25.419 0-2.767-.329-5.43-.938-7.924Zm-6.641-45.848c0 17.818-19.087 32.263-42.631 32.263-23.545 0-42.632-14.445-42.632-32.263 0-17.819 19.087-32.263 42.632-32.263 23.544 0 42.631 14.444 42.631 32.263Z" clip-rule="evenodd"/></svg>