<svg xmlns="http://www.w3.org/2000/svg" fill="none" viewBox="0 0 146 115"><path fill="#C5B78C" fill-rule="evenodd" d="M112.265 54.361a.05.05 0 0 1-.009-.039L121.442.754a.052.052 0 0 1 .051-.043h2.908a.05.05 0 0 1 .048.036l20.698 65.532a.052.052 0 0 1-.018.056l-15.26 11.915a.051.051 0 0 1-.073-.01l-17.531-23.878ZM.851 89.874c0 .022.014.041.035.048l31.458 10.286a.052.052 0 0 0 .045-.006l70.315-48.544a.05.05 0 0 0 .022-.035l7.54-50.595a.05.05 0 0 0-.05-.059H47.934a.051.051 0 0 0-.04.02L.863 57.723a.052.052 0 0 0-.012.033v32.117Zm44.602 12.955 34.366 11.257a.05.05 0 0 0 .046-.007l40.916-29.349a.05.05 0 0 0 .013-.07l-15.338-22.825a.051.051 0 0 0-.072-.014L45.453 102.83Z" clip-rule="evenodd"/></svg>