<svg xmlns="http://www.w3.org/2000/svg" fill="none" viewBox="0 0 144 125"><path fill="#5A8EA2" fill-rule="evenodd" d="M.014 62.488a.105.105 0 0 1 0-.106L36.224.516a.105.105 0 0 1 .09-.052h71.769c.037 0 .072.02.091.053l35.812 61.865a.109.109 0 0 1 0 .105l-35.812 61.796a.107.107 0 0 1-.091.052H36.314a.105.105 0 0 1-.09-.051L.014 62.488Zm105.347-.088c0 18.418-14.931 33.35-33.35 33.35-18.418 0-33.35-14.932-33.35-33.35 0-18.419 14.932-33.35 33.35-33.35 18.419 0 33.35 14.931 33.35 33.35Z" clip-rule="evenodd"/></svg>